# xmcd CD database file
#
# Track frame offsets:
#	150
#	21657
#	40305
#	56210
#	89902
#	117465
#	141582
#	161115
#	183737
#	202427
#	234232
#
# Disc length: 3341 seconds
#
# Revision: 4
# Processed by: cddbd v1.5.2PL0 Copyright (c) Steve Scherf et al.
# Submitted via: CDex 1.51
#
DISCID=b90d0b0b
DTITLE=Pinetop Perkins and Hubert Sumlin - Legends
DYEAR=1998
DGENRE=Blues
TTITLE0=Got My Mojo Working
TTITLE1=Nutcracker
TTITLE2=Rock Me Baby
TTITLE3=Hoochie Coochie Man
TTITLE4=The Sky Is Crying
TTITLE5=Pinto Beans And Blackeyed Peas
TTITLE6=Take It Easy Baby
TTITLE7=Shame, Shame, Shame
TTITLE8=Come Back Baby
TTITLE9=Sunnyland Slim
TTITLE10=She Walks Right In
EXTD=YEAR: 1998
EXTT0=
EXTT1=
EXTT2=
EXTT3=
EXTT4=
EXTT5=
EXTT6=
EXTT7=
EXTT8=
EXTT9=
EXTT10=
PLAYORDER=
